<svg width="17" height="17" viewBox="0 0 17 17" fill="none" xmlns="http://www.w3.org/2000/svg">
<path fill-rule="evenodd" clip-rule="evenodd" d="M6.5001 15.3999C6.5001 16.2283 7.17167 16.8999 8.0001 16.8999C8.82852 16.8999 9.5001 16.2283 9.5001 15.3999V10.4999H14.6001C15.4285 10.4999 16.1001 9.82833 16.1001 8.9999C16.1001 8.17147 15.4285 7.4999 14.6001 7.4999L9.5001 7.4999V2.3999C9.5001 1.57147 8.82852 0.899902 8.0001 0.899902C7.17167 0.899902 6.5001 1.57148 6.5001 2.3999V7.4999L1.6001 7.4999C0.77167 7.4999 0.100098 8.17148 0.100098 8.9999C0.100098 9.82833 0.77167 10.4999 1.6001 10.4999H6.5001V15.3999Z" fill="url(#paint0_linear_138_1885)"/>
<defs>
<linearGradient id="paint0_linear_138_1885" x1="16.1001" y1="2.0999" x2="-0.690195" y2="3.05857" gradientUnits="userSpaceOnUse">
<stop stop-color="#62C6AA"/>
<stop offset="1" stop-color="#44A88C"/>
</linearGradient>
</defs>
</svg>
