<svg width="83" height="74" viewBox="0 0 83 74" fill="none" xmlns="http://www.w3.org/2000/svg">
  <path id="7fe8eabdd2125dea39f01c1f682562fc" d="M54.7574 2.79991C62.5985 -0.815665 72.1743 1.29551 77.7005 8.40478C83.2266 15.514 82.9101 25.3147 77.4717 32.0214C75.6934 34.2145 73.152 35.6728 70.4372 37.0781L58.3511 43.3341C52.8066 46.204 47.8362 50.0676 43.6871 54.7326L34.6427 64.9017C32.6111 67.1859 30.5708 69.289 28.0068 70.4713C20.1658 74.0868 10.5899 71.9757 5.06379 64.8664C-0.462356 57.7571 -0.145802 47.9564 5.29251 41.2497C7.07081 39.0567 9.61222 37.5984 12.3271 36.1931L24.4131 29.9371C29.9576 27.0672 34.928 23.2036 39.0772 18.5385L48.1215 8.36951C50.1532 6.08526 52.1934 3.9822 54.7574 2.79991Z" fill="url(#b5380044ec4861ddfc2f9e2b976dcfa8)" stroke="url(#paint1_linear_87_599)" stroke-width="2"></path>
  <defs>
    <linearGradient id="b5380044ec4861ddfc2f9e2b976dcfa8" x1="18.739" y1="69.105" x2="11.7174" y2="10.251" gradientUnits="userSpaceOnUse">
      <stop stop-color="#464851"></stop>
      <stop offset="1" stop-color="#282B33"></stop>
    </linearGradient>
    <linearGradient id="f7e5153ede55a38bdd67dcee5188d5cd" x1="24.6123" y1="68.6697" x2="13.9403" y2="13.5451" gradientUnits="userSpaceOnUse">
      <stop stop-color="#1C1F26"></stop>
      <stop offset="1" stop-color="#4B4F5F"></stop>
    </linearGradient>
  </defs>
</svg>