<?xml version="1.0" encoding="UTF-8" standalone="no"?>
<svg xmlns:cc="http://creativecommons.org/ns#" xmlns:dc="http://purl.org/dc/elements/1.1/"
    xmlns:inkscape="http://www.inkscape.org/namespaces/inkscape" xmlns:rdf="http://www.w3.org/1999/02/22-rdf-syntax-ns#"
    xmlns:sodipodi="http://sodipodi.sourceforge.net/DTD/sodipodi-0.dtd"
    xmlns:svg="http://www.w3.org/2000/svg"
    xmlns:xsi="http://www.w3.org/2001/XMLSchema-instance"
    fill="none" height="95" id="svg11"
    version="1.1" viewBox="0 0 45 95" width="45" xmlns="http://www.w3.org/2000/svg" inkscape:version="1.0 (4035a4fb49, 2020-05-01)"
    sodipodi:docname="clock_arrow.svg"
    xsi:schemaLocation="http://purl.org/dc/elements/1.1/ ">
  <metadata id="metadata15">
    <rdf:RDF>
      <cc:Work rdf:about="">
        <dc:format>image/svg+xml</dc:format>
        <dc:type rdf:resource="http://purl.org/dc/dcmitype/StillImage" />
        <dc:title></dc:title>
      </cc:Work>
    </rdf:RDF>
  </metadata>
  <sodipodi:namedview inkscape:current-layer="svg11" inkscape:window-maximized="1" inkscape:window-y="-8"
      inkscape:window-x="-8" inkscape:cy="59.744739" inkscape:cx="22.5" inkscape:zoom="6.6105263"
      showgrid="false" id="namedview13" inkscape:window-height="795" inkscape:window-width="1600"
      inkscape:pageshadow="2" inkscape:pageopacity="0" guidetolerance="10" gridtolerance="10"
      objecttolerance="10" borderopacity="1" bordercolor="#666666" pagecolor="#ffffff" />
  <g transform="matrix(-0.82458124,-0.37144674,0.37144674,-0.82458124,24.583194,95.717037)" id="g4"
      clip-path="url(#clip0_1_14)">
    <path id="path2" fill="#46b092" d="M 5.84888,19.086 C 5.08512,18.5066 4.48107,17.7448 4.09285,16.8713 3.7056,16.0193 3.53681,15.0852 3.60158,14.1525 3.70487,12.2505 3.30686,10.3547 2.44693,8.65249 L 0.480474,5.33875 C -0.499293,3.41852 0.0634815,1.14269 1.76706,0.305145 3.47065,-0.532398 5.60544,0.416847 6.51377,2.38611 6.54926,2.46302 6.58777,2.54818 6.6177,2.62522 l 1.21736,3.64935 c 0.70038,1.77287 1.8551,3.33283 3.34954,4.52503 0.744,0.5833 1.3321,1.3396 1.7123,2.2023 0.3803,0.8626 0.5411,1.805 0.4683,2.744 -0.1708,1.8794 0.1141,3.772 0.8308,5.5193 l 30.7711,72.5592 c 0.062,0.2204 0.0357,0.4561 -0.0733,0.6578 -0.109,0.2016 -0.2923,0.3535 -0.5114,0.4238 -0.1954,0.0983 -0.4208,0.1204 -0.6318,0.062 -0.211,-0.0584 -0.3924,-0.1932 -0.5085,-0.3778 L 9.42742,23.3802 C 8.59813,21.6844 7.37081,20.2116 5.84888,19.086 Z M 10.087,16.9109 C 8.97992,17.791 7.36658,17.6126 6.48346,16.5123 5.60038,15.4121 5.78193,13.8066 6.88898,12.9265 c 1.10706,-0.8801 2.7204,-0.7017 3.60352,0.3986 0.8831,1.1003 0.7015,2.7057 -0.4055,3.5858 z"
        clip-rule="evenodd" fill-rule="evenodd" />
  </g>
  <defs id="defs9">
    <clipPath id="clip0_1_14">
      <rect id="rect6" fill="white" height="95" width="45" />
    </clipPath>
  </defs>
</svg>
