<svg width="52" height="45" viewBox="0 0 52 45" fill="none" xmlns="http://www.w3.org/2000/svg">
<path d="M8.16175 22.498L8.16176 22.4994C8.16316 23.2607 8.42402 23.9987 8.90131 24.5918C9.2485 25.0232 9.69511 25.3591 10.1989 25.5734V29.0432C10.1989 29.3016 10.0963 29.5494 9.91358 29.7321C9.73089 29.9148 9.48311 30.0174 9.22474 30.0174H8.92945C8.67323 30.0163 8.42759 29.9149 8.24523 29.7349C8.06384 29.5558 7.95943 29.3131 7.95406 29.0584V22.1521C7.95406 22.1521 7.95406 22.1521 7.95406 22.1521C7.95407 21.8407 7.83141 21.5419 7.61266 21.3203C7.39388 21.0987 7.09661 20.9723 6.78526 20.9683L6.76645 20.9683C6.45618 20.9722 6.1597 21.0972 5.94028 21.3166C5.72086 21.536 5.59589 21.8325 5.59204 22.1427L5.59198 22.1427V22.1521V29.0432C5.59198 29.3011 5.48977 29.5484 5.30775 29.731C5.12597 29.9133 4.8794 30.0163 4.62195 30.0174L4.31581 30.0174L4.31098 30.0174C4.05367 30.0191 3.80617 29.9189 3.62249 29.7387C3.43978 29.5594 3.33499 29.3155 3.33067 29.0597V19.0442C3.33067 18.63 2.99488 18.2942 2.58067 18.2942H2.15786C1.88639 18.2942 1.62604 18.1863 1.43408 17.9944C1.24212 17.8024 1.13428 17.5421 1.13428 17.2706V12.5213C1.13531 11.6112 1.4235 10.7247 1.95779 9.98793C2.41962 9.3511 3.04496 8.85427 3.76455 8.54798C4.6535 9.13569 5.69832 9.4517 6.77028 9.4517C7.84165 9.4517 8.88591 9.13603 9.77455 8.54894C10.073 8.67773 10.3554 8.84082 10.6162 9.03492V9.03497V9.03595V9.03693V9.03791V9.03889V9.03987V9.04085V9.04183V9.04281V9.04379V9.04478V9.04576V9.04674V9.04772V9.0487V9.04968V9.05067V9.05165V9.05263V9.05361V9.0546V9.05558V9.05656V9.05754V9.05853V9.05951V9.06049V9.06148V9.06246V9.06344V9.06443V9.06541V9.06639V9.06738V9.06836V9.06935V9.07033V9.07132V9.0723V9.07329V9.07427V9.07526V9.07624V9.07723V9.07821V9.0792V9.08018V9.08117V9.08216V9.08314V9.08413V9.08511V9.0861V9.08709V9.08807V9.08906V9.09005V9.09104V9.09202V9.09301V9.094V9.09499V9.09597V9.09696V9.09795V9.09894V9.09993V9.10091V9.1019V9.10289V9.10388V9.10487V9.10586V9.10685V9.10784V9.10883V9.10982V9.1108V9.11179V9.11278V9.11377V9.11476V9.11576V9.11675V9.11774V9.11873V9.11972V9.12071V9.1217V9.12269V9.12368V9.12467V9.12566V9.12666V9.12765V9.12864V9.12963V9.13062V9.13162V9.13261V9.1336V9.13459V9.13559V9.13658V9.13757V9.13857V9.13956V9.14055V9.14155V9.14254V9.14353V9.14453V9.14552V9.14652V9.14751V9.1485V9.1495V9.15049V9.15149V9.15248V9.15348V9.15447V9.15547V9.15646V9.15746V9.15846V9.15945V9.16045V9.16144V9.16244V9.16344V9.16443V9.16543V9.16643V9.16742V9.16842V9.16942V9.17041V9.17116C10.6162 9.17125 10.6162 9.17133 10.6162 9.17141C10.6159 10.1886 10.8993 11.1791 11.4254 12.0352C10.5734 12.5385 9.84106 13.228 9.28582 14.0567C8.55417 15.1487 8.16297 16.4332 8.16176 17.7476V17.7483L8.16175 22.498Z" stroke="white" stroke-width="1.5" stroke-linejoin="round"/>
<path d="M4.71261 6.37006L4.71057 6.36834C4.21231 5.94885 3.85508 5.3863 3.68728 4.75695C3.51948 4.12759 3.54924 3.46187 3.77252 2.85C3.9958 2.23812 4.4018 1.70969 4.9355 1.33632C5.4692 0.962951 6.10478 0.762695 6.75612 0.762695C7.40746 0.762695 8.04305 0.962951 8.57675 1.33632C9.11045 1.70969 9.51645 2.23812 9.73973 2.85C9.96301 3.46187 9.99276 4.12759 9.82497 4.75695C9.65717 5.3863 9.29993 5.94885 8.80167 6.36834L8.80167 6.36834L8.79964 6.37006C8.22878 6.85416 7.50461 7.11988 6.75612 7.11988C6.00764 7.11988 5.28346 6.85416 4.71261 6.37006Z" stroke="white" stroke-width="1.5" stroke-linejoin="round"/>
<path d="M10.2458 23.7484L10.7713 23.2213C10.9642 23.4136 11.2254 23.5216 11.4978 23.5216H11.9316C12.3458 23.5216 12.6816 23.8574 12.6816 24.2716V34.2926C12.6816 34.551 12.7842 34.7988 12.9669 34.9815C13.1496 35.1641 13.3974 35.2668 13.6558 35.2668H13.9564C14.2148 35.2657 14.4623 35.1626 14.645 34.9799C14.8277 34.7971 14.9309 34.5496 14.9319 34.2913V27.3795C14.9319 27.3795 14.9319 27.3795 14.9319 27.3795C14.9319 27.0681 15.0546 26.7693 15.2734 26.5477L15.807 27.0747L15.2734 26.5477C15.4921 26.3262 15.7894 26.1997 16.1007 26.1958L16.1196 26.1958C16.4298 26.1996 16.7263 26.3246 16.9457 26.544C17.1651 26.7634 17.2901 27.0599 17.294 27.3702L17.2941 27.3795H17.294V34.2926C17.294 34.5504 17.3962 34.7978 17.5783 34.9804C17.76 35.1627 18.0066 35.2657 18.2641 35.2668H18.5633C18.8208 35.2657 19.0674 35.1627 19.2491 34.9804C19.4083 34.8207 19.5065 34.6115 19.5286 34.3891C19.0992 34.1416 18.7281 33.8005 18.4443 33.3887C18.0575 32.8276 17.8513 32.1617 17.8531 31.4802M10.2458 23.7484L18.6031 26.7315C18.6037 25.5155 18.9802 24.3293 19.6811 23.3355C20.2532 22.5243 21.0185 21.8737 21.9034 21.4397C21.7388 21.2452 21.5899 21.0395 21.4574 20.8245M10.2458 23.7484L10.7713 23.2213C10.5786 23.0292 10.4699 22.7687 10.4688 22.4967V17.7495C10.4718 16.8337 10.7657 15.9424 11.3079 15.2043C11.778 14.5644 12.4137 14.0683 13.1434 13.7673C14.0337 14.3589 15.0816 14.6773 16.1569 14.6773C17.2293 14.6773 18.2744 14.3607 19.1631 13.7721M10.2458 23.7484L19.0534 12.9272M17.8531 31.4802C17.8531 31.4798 17.8531 31.4794 17.8531 31.4789L18.6031 31.4812H17.8531V31.4802ZM17.8531 31.4802V26.7315V26.7312C17.8538 25.3605 18.2782 24.0235 19.0682 22.9033C19.6879 22.0245 20.509 21.3128 21.4574 20.8245M21.4574 20.8245C21.6814 20.7091 21.9126 20.6062 22.1499 20.5165C21.7547 19.9077 21.5172 19.2063 21.4638 18.4759C21.3955 17.5412 21.6325 16.6095 22.1393 15.821M21.4574 20.8245C21.0317 20.134 20.7755 19.3477 20.7158 18.5306C20.6459 17.5742 20.8484 16.6205 21.2957 15.7786M22.5182 21.1802C22.3935 21.2247 22.2706 21.2733 22.1497 21.3258L22.3167 21.1802H22.5182ZM22.5182 21.1802V21.0045M22.5182 21.1802L22.4704 21.0462L22.5182 21.0045M22.5182 21.0045C22.4809 20.9617 22.4445 20.9182 22.409 20.8742L22.4555 21.0045H22.5182ZM21.2957 15.7786C21.3499 15.885 21.3997 15.9938 21.4451 16.1047L22.1393 15.821M21.2957 15.7786C21.3614 15.655 21.4323 15.5339 21.5084 15.4155L22.1393 15.821M21.2957 15.7786C21.0686 15.3325 20.7654 14.9283 20.399 14.5846C20.036 14.2443 19.6178 13.9697 19.1631 13.7721M22.1393 15.821C21.8631 15.1452 21.4445 14.5369 20.912 14.0375C20.3794 13.5382 19.7455 13.1595 19.0534 12.9272M19.0534 12.9272L19.5161 13.5175C19.4016 13.6073 19.2838 13.6922 19.1631 13.7721M19.0534 12.9272L18.8148 13.6383C18.933 13.6779 19.0492 13.7226 19.1631 13.7721" stroke="white" stroke-width="1.5" stroke-linejoin="round"/>
<path d="M14.0791 11.5962L14.0776 11.595C13.724 11.2983 13.4398 10.9276 13.2451 10.5091C13.0504 10.0906 12.95 9.63441 12.9508 9.17283L12.9508 9.17087C12.9503 8.44751 13.1967 7.74564 13.6492 7.18136C14.1018 6.61707 14.7335 6.22418 15.4397 6.06767C16.1459 5.91116 16.8844 6.00041 17.533 6.32067C18.1816 6.64092 18.7014 7.17298 19.0065 7.82884C19.3117 8.4847 19.3837 9.22507 19.2109 9.92747C19.038 10.6299 18.6306 11.2522 18.0559 11.6916C17.4813 12.1309 16.7739 12.361 16.0507 12.3436C15.3276 12.3263 14.632 12.0626 14.0791 11.5962Z" stroke="white" stroke-width="1.5" stroke-linejoin="round"/>
<path d="M43.3483 17.7476L43.3483 17.7483V22.498V22.4994C43.3469 23.2607 43.086 23.9987 42.6087 24.5918L42.0244 24.1216L42.6087 24.5918C42.2615 25.0232 41.8149 25.3591 41.3111 25.5734V29.0598C41.3133 29.1863 41.34 29.3112 41.3899 29.4276C41.4404 29.5451 41.5135 29.6516 41.6051 29.7409C41.6968 29.8302 41.8051 29.9006 41.9239 29.9481C42.0427 29.9955 42.1697 30.0191 42.2976 30.0175L42.3073 30.0173V30.0174H42.5984C42.8519 30.0132 43.094 29.9108 43.2736 29.7317C43.453 29.5529 43.5561 29.3116 43.5615 29.0584V22.1521C43.5615 22.1521 43.5615 22.1521 43.5615 22.1521C43.5615 21.8407 43.6841 21.5419 43.9029 21.3203C44.1216 21.0987 44.4189 20.9723 44.7303 20.9683L44.7491 20.9683C45.0593 20.9722 45.3558 21.0972 45.5752 21.3166C45.7947 21.536 45.9196 21.8325 45.9235 22.1428L45.9236 22.1521H45.9235V29.0597C45.9279 29.3155 46.0327 29.5594 46.2154 29.7387C46.399 29.9189 46.6465 30.0191 46.9039 30.0174L46.9087 30.0174L47.2148 30.0174C47.4723 30.0163 47.7188 29.9133 47.9006 29.731C48.0826 29.5484 48.1849 29.3011 48.1849 29.0432V19.0442C48.1849 18.63 48.5206 18.2942 48.9349 18.2942H49.3741C49.6456 18.2942 49.906 18.1863 50.0979 17.9944C50.2899 17.8024 50.3977 17.5421 50.3977 17.2706V12.5217C50.3968 11.6115 50.1086 10.7248 49.5742 9.98793C49.1124 9.3511 48.487 8.85427 47.7674 8.54798C46.8785 9.13569 45.8337 9.4517 44.7617 9.4517C43.6884 9.4517 42.6423 9.13488 41.7526 8.54574C41.4441 8.67437 41.1521 8.83945 40.8828 9.03747V9.03791V9.03889V9.03987V9.04085V9.04183V9.04281V9.04379V9.04478V9.04576V9.04674V9.04772V9.0487V9.04968V9.05067V9.05165V9.05263V9.05361V9.0546V9.05558V9.05656V9.05754V9.05853V9.05951V9.06049V9.06148V9.06246V9.06344V9.06443V9.06541V9.0664V9.06738V9.06836V9.06935V9.07033V9.07132V9.0723V9.07329V9.07427V9.07526V9.07624V9.07723V9.07821V9.0792V9.08018V9.08117V9.08216V9.08314V9.08413V9.08511V9.0861V9.08709V9.08807V9.08906V9.09005V9.09104V9.09202V9.09301V9.094V9.09499V9.09597V9.09696V9.09795V9.09894V9.09993V9.10091V9.1019V9.10289V9.10388V9.10487V9.10586V9.10685V9.10784V9.10883V9.10982V9.11081V9.11179V9.11278V9.11377V9.11476V9.11576V9.11675V9.11774V9.11873V9.11972V9.12071V9.1217V9.12269V9.12368V9.12467V9.12566V9.12666V9.12765V9.12864V9.12963V9.13062V9.13162V9.13261V9.1336V9.13459V9.13559V9.13658V9.13757V9.13857V9.13956V9.14055V9.14155V9.14254V9.14353V9.14453V9.14552V9.14652V9.14751V9.14851V9.1495V9.15049V9.15149V9.15248V9.15348V9.15447V9.15547V9.15647V9.15746V9.15846V9.15945V9.16045V9.16144V9.16244V9.16344V9.16443V9.16543V9.16643V9.16742V9.16842V9.16942V9.17033V9.17041V9.17141H40.7103C40.681 9.19535 40.6521 9.21969 40.6235 9.24443L40.5603 9.17141H40.1328M43.3483 17.7476L42.5983 17.7483C42.5972 16.5823 42.2502 15.4428 41.6011 14.4742C41.0963 13.7208 40.4265 13.097 39.6465 12.6479C39.8064 12.4526 39.9518 12.2473 40.0822 12.0338M43.3483 17.7476C43.3471 16.4332 42.9559 15.1487 42.2242 14.0567C41.6684 13.2272 40.9352 12.5372 40.0822 12.0338M43.3483 17.7476L40.0822 12.0338M40.1328 9.17141L40.5593 9.17015L40.1328 8.67722V9.17141ZM40.1328 9.17141C40.1355 10.0667 39.8834 10.9387 39.4137 11.6887C39.6435 11.7913 39.8667 11.9066 40.0822 12.0338" stroke="white" stroke-width="1.5" stroke-linejoin="round"/>
<path d="M42.7158 6.37003L42.7131 6.36775C42.2132 5.94791 41.8546 5.38447 41.6859 4.75387C41.5171 4.12327 41.5465 3.45603 41.7699 2.84267C41.9933 2.22931 42.4 1.69951 42.9348 1.32515C43.4695 0.950798 44.1065 0.75 44.7593 0.75C45.4121 0.75 46.0491 0.950798 46.5838 1.32515C47.1186 1.69951 47.5253 2.2293 47.7487 2.84267C47.9721 3.45603 48.0014 4.12327 47.8327 4.75387C47.664 5.38447 47.3054 5.94791 46.8055 6.36775L46.8055 6.36774L46.8028 6.37003C46.232 6.85413 45.5078 7.11985 44.7593 7.11985C44.0108 7.11985 43.2866 6.85413 42.7158 6.37003Z" stroke="white" stroke-width="1.5" stroke-linejoin="round"/>
<path d="M40.0223 23.5216C40.2938 23.5205 40.5538 23.4122 40.7457 23.2202C40.9377 23.0282 41.046 22.7682 41.0471 22.4968V17.7486C41.0471 17.7485 41.0471 17.7484 41.0471 17.7483C41.0468 16.8368 40.7584 15.9487 40.2231 15.2109C39.7604 14.5731 39.1336 14.0759 38.4125 13.7699C37.523 14.3599 36.4766 14.6773 35.4029 14.6773C34.3294 14.6773 33.2832 14.36 32.3938 13.7702C31.9339 13.9661 31.5106 14.2406 31.1431 14.5821C30.773 14.9261 30.4667 15.3316 30.2372 15.7796C30.6841 16.6213 30.8864 17.5746 30.8166 18.5306C30.7568 19.3477 30.5007 20.134 30.075 20.8245C31.0234 21.3128 31.8444 22.0245 32.4642 22.9033C33.2542 24.0235 33.6786 25.3605 33.6792 26.7312L33.6792 26.7315L33.6792 31.4807L33.6792 31.4812M40.0223 23.5216L31.2325 33.9192C31.7307 33.7351 32.1604 33.4026 32.4638 32.9667C32.7672 32.5308 32.9296 32.0123 32.9292 31.4812H33.6792M40.0223 23.5216H39.5898C39.1756 23.5216 38.8398 23.8574 38.8398 24.2716V34.2926C38.8398 34.551 38.7371 34.7988 38.5544 34.9815C38.3718 35.1641 38.124 35.2668 37.8656 35.2668H37.5649C37.3066 35.2657 37.0591 35.1626 36.8764 34.9799C36.6936 34.7971 36.5905 34.5496 36.5894 34.2913V27.3795C36.5894 27.3795 36.5894 27.3795 36.5894 27.3795C36.5894 27.0681 36.4668 26.7693 36.248 26.5477L35.7143 27.0747L36.248 26.5477C36.0293 26.3262 35.732 26.1997 35.4206 26.1958L35.4018 26.1958C35.0915 26.1996 34.7951 26.3246 34.5757 26.544C34.3562 26.7634 34.2313 27.0599 34.2274 27.3702L34.2274 27.3702V27.3795V34.2926C34.2274 34.551 34.1247 34.7988 33.942 34.9815C33.7593 35.1641 33.5116 35.2668 33.2532 35.2668H32.9525C32.6951 35.2657 32.4485 35.1627 32.2667 34.9804C32.1083 34.8214 32.0103 34.6135 31.9876 34.3922M40.0223 23.5216L31.9876 34.3922M33.6792 31.4812C33.6796 32.1655 33.4703 32.8335 33.0794 33.3951C32.793 33.8066 32.4193 34.1465 31.9876 34.3922M33.6792 31.4812L31.9876 34.3922" stroke="white" stroke-width="1.5" stroke-linejoin="round"/>
<path d="M33.3607 11.5938L33.3591 11.5925C33.0037 11.2973 32.7177 10.9273 32.5215 10.5089C32.3254 10.0906 32.2239 9.63409 32.2243 9.17201L32.2242 9.17004C32.2229 8.44972 32.4674 7.7505 32.9172 7.18788C33.367 6.62527 33.9953 6.23292 34.6982 6.07564C35.4012 5.91836 36.1367 6.00557 36.7834 6.32285C37.4301 6.64013 37.9492 7.16851 38.255 7.82071C38.5608 8.4729 38.635 9.20989 38.4653 9.90994C38.2956 10.61 37.8922 11.2312 37.3217 11.671C36.7512 12.1108 36.0478 12.3428 35.3276 12.3288C34.6074 12.3148 33.9136 12.0555 33.3607 11.5938Z" stroke="white" stroke-width="1.5" stroke-linejoin="round"/>
<mask id="path-9-inside-1_505_1076" fill="white">
<path d="M32.2318 31.4811V26.7314C32.2312 25.5781 31.8368 24.4595 31.1139 23.5608C30.3909 22.6621 29.3828 22.0372 28.2564 21.7896C27.5429 22.269 26.7027 22.5251 25.8431 22.5251C24.9835 22.5251 24.1433 22.269 23.4298 21.7896C23.1275 21.8545 22.8316 21.9463 22.5458 22.0641C21.629 22.454 20.8471 23.1048 20.2975 23.9357C19.7478 24.7665 19.4546 25.7407 19.4543 26.7369V31.4811C19.4546 31.7895 19.5353 32.0925 19.6884 32.3602C19.8415 32.6279 20.0617 32.851 20.3274 33.0076C20.5993 33.171 20.9108 33.2564 21.2279 33.2547H21.6617V43.2757C21.6632 43.7325 21.8453 44.1703 22.1683 44.4933C22.4913 44.8163 22.929 44.9984 23.3859 44.9999H23.6879C24.1452 44.9999 24.5837 44.8182 24.9071 44.4949C25.2304 44.1715 25.4121 43.733 25.4121 43.2757V36.3626C25.4052 36.3019 25.4112 36.2404 25.4298 36.1822C25.4483 36.124 25.4789 36.0704 25.5196 36.0249C25.5603 35.9793 25.6101 35.9429 25.6659 35.9179C25.7216 35.893 25.782 35.8801 25.8431 35.8801C25.9042 35.8801 25.9646 35.893 26.0203 35.9179C26.0761 35.9429 26.1259 35.9793 26.1666 36.0249C26.2073 36.0704 26.2379 36.124 26.2564 36.1822C26.275 36.2404 26.281 36.3019 26.2741 36.3626V43.2757C26.2741 43.733 26.4558 44.1715 26.7791 44.4949C27.1025 44.8182 27.541 44.9999 27.9983 44.9999H28.2948C28.7516 44.9984 29.1893 44.8163 29.5124 44.4933C29.8354 44.1703 30.0175 43.7325 30.019 43.2757V33.2547H30.4583C30.9286 33.2547 31.3798 33.0678 31.7124 32.7352C32.045 32.4026 32.2318 31.9515 32.2318 31.4811Z"/>
</mask>
<path d="M32.2318 26.7314H33.7318L33.7318 26.7306L32.2318 26.7314ZM28.2564 21.7896L28.5785 20.3245C28.1784 20.2366 27.7598 20.3161 27.4198 20.5445L28.2564 21.7896ZM23.4298 21.7896L24.2664 20.5445C23.9285 20.3175 23.5129 20.2375 23.1149 20.323L23.4298 21.7896ZM22.5458 22.0641L21.9745 20.6771C21.9692 20.6793 21.964 20.6815 21.9587 20.6837L22.5458 22.0641ZM19.4543 26.7369L17.9543 26.7366V26.7369H19.4543ZM19.4543 31.4811H17.9543L17.9543 31.4824L19.4543 31.4811ZM20.3274 33.0076L21.1001 31.7219L21.089 31.7153L20.3274 33.0076ZM21.2279 33.2547V31.7547L21.2196 31.7547L21.2279 33.2547ZM21.6617 33.2547H23.1617C23.1617 32.4263 22.4901 31.7547 21.6617 31.7547V33.2547ZM21.6617 43.2757H20.1617L20.1617 43.2805L21.6617 43.2757ZM23.3859 44.9999L23.3811 46.4999H23.3859V44.9999ZM23.6879 44.9999V46.4999V44.9999ZM25.4121 36.3626H26.9121C26.9121 36.3063 26.9089 36.25 26.9026 36.1941L25.4121 36.3626ZM25.8431 35.8801V37.3801V35.8801ZM26.2741 36.3626L24.7836 36.1941C24.7773 36.25 24.7741 36.3063 24.7741 36.3626H26.2741ZM27.9983 44.9999V46.4999V44.9999ZM28.2948 44.9999V46.4999L28.2996 46.4999L28.2948 44.9999ZM30.019 43.2757L31.519 43.2805V43.2757H30.019ZM30.019 33.2547V31.7547C29.1905 31.7547 28.519 32.4263 28.519 33.2547H30.019ZM30.4583 33.2547V34.7547V33.2547ZM33.7318 31.4811V26.7314H30.7318V31.4811H33.7318ZM33.7318 26.7306C33.731 25.2355 33.2198 23.7855 32.2826 22.6206L29.9451 24.501C30.4539 25.1334 30.7314 25.9206 30.7318 26.7322L33.7318 26.7306ZM32.2826 22.6206C31.3455 21.4557 30.0387 20.6456 28.5785 20.3245L27.9342 23.2546C28.727 23.4289 29.4364 23.8686 29.9451 24.501L32.2826 22.6206ZM27.4198 20.5445C26.9536 20.8578 26.4047 21.0251 25.8431 21.0251V24.0251C27.0007 24.0251 28.1321 23.6802 29.093 23.0346L27.4198 20.5445ZM25.8431 21.0251C25.2815 21.0251 24.7326 20.8578 24.2664 20.5445L22.5932 23.0346C23.5541 23.6802 24.6855 24.0251 25.8431 24.0251V21.0251ZM23.1149 20.323C22.7249 20.4067 22.3433 20.5252 21.9745 20.6771L23.117 23.4511C23.32 23.3674 23.5301 23.3022 23.7447 23.2561L23.1149 20.323ZM21.9587 20.6837C20.7712 21.1887 19.7585 22.0318 19.0465 23.1081L21.5485 24.7633C21.9358 24.1778 22.4868 23.7192 23.1328 23.4445L21.9587 20.6837ZM19.0465 23.1081C18.3344 24.1843 17.9547 25.4461 17.9543 26.7366L20.9543 26.7373C20.9545 26.0353 21.1611 25.3488 21.5485 24.7633L19.0465 23.1081ZM17.9543 26.7369V31.4811H20.9543V26.7369H17.9543ZM17.9543 31.4824C17.9548 32.0516 18.1037 32.6108 18.3863 33.1049L20.9904 31.6155C20.9668 31.5742 20.9544 31.5274 20.9543 31.4799L17.9543 31.4824ZM18.3863 33.1049C18.6689 33.599 19.0754 34.0109 19.5658 34.2999L21.089 31.7153C21.048 31.6912 21.0141 31.6568 20.9904 31.6155L18.3863 33.1049ZM19.5548 34.2933C20.0623 34.5983 20.644 34.7579 21.2362 34.7547L21.2196 31.7547C21.1775 31.755 21.1362 31.7436 21.1001 31.7219L19.5548 34.2933ZM21.2279 34.7547H21.6617V31.7547H21.2279V34.7547ZM20.1617 33.2547V43.2757H23.1617V33.2547H20.1617ZM20.1617 43.2805C20.1644 44.1335 20.5045 44.9508 21.1077 45.5539L23.229 43.4326C23.1861 43.3897 23.1619 43.3316 23.1617 43.271L20.1617 43.2805ZM21.1077 45.5539C21.7108 46.1571 22.5281 46.4972 23.3811 46.4999L23.3906 43.4999C23.33 43.4997 23.2719 43.4755 23.229 43.4326L21.1077 45.5539ZM23.3859 46.4999H23.6879V43.4999H23.3859V46.4999ZM23.6879 46.4999C24.543 46.4999 25.3631 46.1602 25.9677 45.5555L23.8464 43.4342C23.8044 43.4763 23.7473 43.4999 23.6879 43.4999V46.4999ZM25.9677 45.5555C26.5724 44.9509 26.9121 44.1308 26.9121 43.2757H23.9121C23.9121 43.3352 23.8884 43.3922 23.8464 43.4342L25.9677 45.5555ZM26.9121 43.2757V36.3626H23.9121V43.2757H26.9121ZM26.9026 36.1941C26.9194 36.3432 26.9046 36.4943 26.859 36.6374L24.0005 35.7271C23.9178 35.9866 23.891 36.2606 23.9215 36.5311L26.9026 36.1941ZM26.859 36.6374C26.8135 36.7804 26.7383 36.9122 26.6382 37.0242L24.4009 35.0256C24.2195 35.2286 24.0831 35.4677 24.0005 35.7271L26.859 36.6374ZM26.6382 37.0242C26.5382 37.1361 26.4157 37.2257 26.2787 37.287L25.0531 34.5488C24.8046 34.66 24.5823 34.8225 24.4009 35.0256L26.6382 37.0242ZM26.2787 37.287C26.1416 37.3484 25.9932 37.3801 25.8431 37.3801V34.3801C25.5708 34.3801 25.3016 34.4376 25.0531 34.5488L26.2787 37.287ZM25.8431 37.3801C25.693 37.3801 25.5445 37.3484 25.4075 37.287L26.6331 34.5488C26.3846 34.4376 26.1154 34.3801 25.8431 34.3801V37.3801ZM25.4075 37.287C25.2705 37.2257 25.148 37.1361 25.0479 37.0242L27.2852 35.0256C27.1038 34.8225 26.8816 34.66 26.6331 34.5488L25.4075 37.287ZM25.0479 37.0242C24.9479 36.9122 24.8727 36.7804 24.8271 36.6374L27.6857 35.7271C27.6031 35.4677 27.4666 35.2286 27.2852 35.0256L25.0479 37.0242ZM24.8271 36.6374C24.7816 36.4943 24.7668 36.3433 24.7836 36.1941L27.7646 36.5311C27.7952 36.2605 27.7683 35.9866 27.6857 35.7271L24.8271 36.6374ZM24.7741 36.3626V43.2757H27.7741V36.3626H24.7741ZM24.7741 43.2757C24.7741 44.1308 25.1138 44.9509 25.7185 45.5555L27.8398 43.4342C27.7978 43.3922 27.7741 43.3352 27.7741 43.2757H24.7741ZM25.7185 45.5555C26.3231 46.1602 27.1432 46.4999 27.9983 46.4999V43.4999C27.9388 43.4999 27.8818 43.4763 27.8398 43.4342L25.7185 45.5555ZM27.9983 46.4999H28.2948V43.4999H27.9983V46.4999ZM28.2996 46.4999C29.1526 46.4972 29.9699 46.1571 30.573 45.5539L28.4517 43.4326C28.4088 43.4755 28.3507 43.4997 28.2901 43.4999L28.2996 46.4999ZM30.573 45.5539C31.1762 44.9508 31.5163 44.1335 31.519 43.2805L28.519 43.271C28.5188 43.3316 28.4946 43.3897 28.4517 43.4326L30.573 45.5539ZM31.519 43.2757V33.2547H28.519V43.2757H31.519ZM30.019 34.7547H30.4583V31.7547H30.019V34.7547ZM30.4583 34.7547C31.3265 34.7547 32.1591 34.4098 32.773 33.7959L30.6517 31.6746C30.6004 31.7259 30.5308 31.7547 30.4583 31.7547V34.7547ZM32.773 33.7959C33.3869 33.182 33.7318 32.3493 33.7318 31.4811H30.7318C30.7318 31.5537 30.703 31.6233 30.6517 31.6746L32.773 33.7959Z" fill="white" mask="url(#path-9-inside-1_505_1076)"/>
<path d="M24.0174 20.3102L24.0157 20.3088C23.7007 20.045 23.4485 19.7142 23.2774 19.3407C23.1063 18.9671 23.0207 18.5601 23.0267 18.1492L23.0267 18.147C23.0341 17.514 23.2568 16.9024 23.6581 16.4129C24.0595 15.9234 24.6156 15.5852 25.2348 15.4539C25.8541 15.3226 26.4996 15.4061 27.0651 15.6906C27.6305 15.9752 28.0822 16.4438 28.3458 17.0193C28.6094 17.5948 28.6692 18.243 28.5152 18.857C28.3613 19.471 28.0029 20.0143 27.499 20.3974C26.9951 20.7806 26.3757 20.9807 25.7429 20.9648C25.1101 20.949 24.5015 20.7181 24.0174 20.3102Z" stroke="white" stroke-width="1.5" stroke-linejoin="round"/>
</svg>
