<svg width="52" height="45" viewBox="0 0 52 45" fill="none" xmlns="http://www.w3.org/2000/svg">
  <g id="4a4c062ccba5da07d0e6489f719c6326">
    <path id="7c2692721f85dbc1d696a0668578f37a" d="M8.16174 22.498L8.16174 22.4993C8.16314 23.2606 8.42401 23.9987 8.9013 24.5917C9.24848 25.0231 9.69509 25.3591 10.1989 25.5734V29.0432C10.1989 29.3016 10.0963 29.5493 9.91356 29.732C9.73087 29.9147 9.48309 30.0174 9.22472 30.0174H8.92943C8.67321 30.0163 8.42758 29.9149 8.24522 29.7349C8.06382 29.5558 7.95941 29.3131 7.95404 29.0584V22.1521C7.95404 22.1521 7.95404 22.152 7.95404 22.152C7.95405 21.8407 7.83139 21.5418 7.61264 21.3203C7.39386 21.0987 7.09659 20.9722 6.78524 20.9683L6.76643 20.9683C6.45616 20.9721 6.15968 21.0971 5.94026 21.3165C5.72084 21.5359 5.59587 21.8324 5.59202 22.1427L5.59196 22.1427V22.152V29.0432C5.59196 29.301 5.48976 29.5483 5.30774 29.7309C5.12595 29.9133 4.87938 30.0163 4.62193 30.0174L4.31579 30.0173L4.31096 30.0174C4.05366 30.019 3.80615 29.9188 3.62247 29.7386C3.43976 29.5594 3.33497 29.3155 3.33065 29.0597V19.0441C3.33065 18.6299 2.99486 18.2941 2.58065 18.2941H2.15784C1.88637 18.2941 1.62602 18.1863 1.43406 17.9943C1.2421 17.8024 1.13426 17.542 1.13426 17.2705V12.5213C1.13529 11.6112 1.42348 10.7246 1.95777 9.98788C2.4196 9.35105 3.04494 8.85423 3.76453 8.54793C4.65348 9.13564 5.6983 9.45166 6.77026 9.45166C7.84163 9.45166 8.88589 9.13598 9.77453 8.54889C10.0729 8.67768 10.3554 8.84077 10.6162 9.03488V9.03492V9.0359V9.03688V9.03786V9.03884V9.03983V9.04081V9.04179V9.04277V9.04375V9.04473V9.04571V9.04669V9.04767V9.04866V9.04964V9.05062V9.0516V9.05258V9.05357V9.05455V9.05553V9.05651V9.0575V9.05848V9.05946V9.06045V9.06143V9.06241V9.0634V9.06438V9.06537V9.06635V9.06733V9.06832V9.0693V9.07029V9.07127V9.07226V9.07324V9.07423V9.07521V9.0762V9.07718V9.07817V9.07915V9.08014V9.08112V9.08211V9.0831V9.08408V9.08507V9.08606V9.08704V9.08803V9.08902V9.09V9.09099V9.09198V9.09296V9.09395V9.09494V9.09593V9.09692V9.0979V9.09889V9.09988V9.10087V9.10186V9.10285V9.10383V9.10482V9.10581V9.1068V9.10779V9.10878V9.10977V9.11076V9.11175V9.11274V9.11373V9.11472V9.11571V9.1167V9.11769V9.11868V9.11967V9.12066V9.12165V9.12264V9.12364V9.12463V9.12562V9.12661V9.1276V9.12859V9.12959V9.13058V9.13157V9.13256V9.13356V9.13455V9.13554V9.13653V9.13753V9.13852V9.13951V9.14051V9.1415V9.14249V9.14349V9.14448V9.14548V9.14647V9.14746V9.14846V9.14945V9.15045V9.15144V9.15244V9.15343V9.15443V9.15542V9.15642V9.15741V9.15841V9.15941V9.1604V9.1614V9.16239V9.16339V9.16439V9.16538V9.16638V9.16738V9.16837V9.16937V9.17037V9.17112C10.6162 9.1712 10.6162 9.17128 10.6162 9.17137C10.6159 10.1886 10.8993 11.179 11.4254 12.0352C10.5734 12.5385 9.84104 13.228 9.28581 14.0567C8.55415 15.1486 8.16295 16.4331 8.16174 17.7476V17.7483L8.16174 22.498Z" stroke="white" stroke-width="1.5" stroke-linejoin="round"></path>
    <path id="173f7d5b723a689597fdbad0f70304da" d="M4.71265 6.37006L4.71061 6.36834C4.21235 5.94885 3.85512 5.3863 3.68732 4.75695C3.51952 4.12759 3.54928 3.46187 3.77256 2.85C3.99583 2.23812 4.40184 1.70969 4.93553 1.33632C5.46923 0.962951 6.10482 0.762695 6.75616 0.762695C7.4075 0.762695 8.04309 0.962951 8.57679 1.33632C9.11049 1.70969 9.51649 2.23812 9.73977 2.85C9.96304 3.46187 9.9928 4.12759 9.825 4.75695C9.65721 5.3863 9.29997 5.94885 8.80171 6.36834L8.80171 6.36834L8.79968 6.37006C8.22882 6.85416 7.50464 7.11988 6.75616 7.11988C6.00768 7.11988 5.2835 6.85416 4.71265 6.37006Z" stroke="white" stroke-width="1.5" stroke-linejoin="round"></path>
    <path id="2b78a8756d6fc4e208b459dd0fd93f2d" d="M10.2458 23.7484L10.7713 23.2213C10.9642 23.4136 11.2254 23.5215 11.4978 23.5215H11.9316C12.3458 23.5215 12.6816 23.8573 12.6816 24.2715V34.2926C12.6816 34.5509 12.7842 34.7987 12.9669 34.9814C13.1496 35.1641 13.3974 35.2667 13.6558 35.2667H13.9564C14.2148 35.2656 14.4623 35.1625 14.645 34.9798C14.8277 34.7971 14.9309 34.5496 14.9319 34.2912V27.3795C14.9319 27.3795 14.9319 27.3795 14.9319 27.3794C14.9319 27.0681 15.0546 26.7693 15.2734 26.5477L15.8071 27.0746L15.2734 26.5477C15.4921 26.3261 15.7894 26.1997 16.1007 26.1957L16.1196 26.1957C16.4298 26.1996 16.7263 26.3245 16.9457 26.5439C17.1651 26.7634 17.2901 27.0598 17.294 27.3701L17.2941 27.3794H17.294V34.2926C17.294 34.5504 17.3962 34.7977 17.5783 34.9803C17.76 35.1627 18.0066 35.2656 18.2641 35.2667H18.5633C18.8208 35.2656 19.0674 35.1627 19.2492 34.9803C19.4083 34.8206 19.5065 34.6115 19.5286 34.3891C19.0992 34.1415 18.7281 33.8005 18.4443 33.3887C18.0575 32.8275 17.8513 32.1617 17.8531 31.4802M10.2458 23.7484L18.6031 26.7315C18.6037 25.5154 18.9802 24.3293 19.6811 23.3355C20.2532 22.5243 21.0185 21.8737 21.9034 21.4396C21.7388 21.2452 21.5899 21.0394 21.4574 20.8245M10.2458 23.7484L10.7713 23.2213C10.5786 23.0292 10.4699 22.7687 10.4688 22.4966V17.7495C10.4718 16.8336 10.7657 15.9424 11.3079 15.2043C11.778 14.5644 12.4137 14.0682 13.1434 13.7672C14.0337 14.3589 15.0816 14.6772 16.1569 14.6772C17.2293 14.6772 18.2744 14.3606 19.1631 13.7721M10.2458 23.7484L19.0534 12.9272M17.8531 31.4802C17.8531 31.4798 17.8531 31.4793 17.8531 31.4789L18.6031 31.4812H17.8531V31.4802ZM17.8531 31.4802V26.7315V26.7311C17.8538 25.3604 18.2782 24.0234 19.0682 22.9032C19.6879 22.0244 20.509 21.3128 21.4574 20.8245M21.4574 20.8245C21.6814 20.7091 21.9126 20.6062 22.1499 20.5165C21.7548 19.9077 21.5172 19.2063 21.4638 18.4759C21.3955 17.5411 21.6325 16.6094 22.1393 15.8209M21.4574 20.8245C21.0317 20.1339 20.7755 19.3477 20.7158 18.5306C20.6459 17.5741 20.8484 16.6205 21.2957 15.7786M22.5182 21.1801C22.3935 21.2246 22.2706 21.2732 22.1497 21.3258L22.3167 21.1801H22.5182ZM22.5182 21.1801V21.0044M22.5182 21.1801L22.4704 21.0461L22.5182 21.0044M22.5182 21.0044C22.4809 20.9616 22.4445 20.9182 22.409 20.8741L22.4555 21.0044H22.5182ZM21.2957 15.7786C21.3499 15.885 21.3997 15.9938 21.4451 16.1047L22.1393 15.8209M21.2957 15.7786C21.3614 15.655 21.4323 15.5338 21.5084 15.4154L22.1393 15.8209M21.2957 15.7786C21.0686 15.3324 20.7654 14.9283 20.399 14.5846C20.036 14.2442 19.6178 13.9696 19.1631 13.7721M22.1393 15.8209C21.8631 15.1452 21.4445 14.5369 20.912 14.0375C20.3794 13.5381 19.7455 13.1594 19.0534 12.9272M19.0534 12.9272L19.5161 13.5174C19.4016 13.6073 19.2838 13.6922 19.1631 13.7721M19.0534 12.9272L18.8148 13.6382C18.933 13.6779 19.0492 13.7226 19.1631 13.7721" stroke="white" stroke-width="1.5" stroke-linejoin="round"></path>
    <path id="0497e824656c0f6f14c9126746fcc89f" d="M14.0791 11.5962L14.0776 11.5949C13.724 11.2982 13.4398 10.9275 13.2451 10.509C13.0504 10.0905 12.9499 9.63435 12.9508 9.17277L12.9508 9.17081C12.9503 8.44745 13.1967 7.74558 13.6492 7.18129C14.1018 6.61701 14.7334 6.22411 15.4397 6.06761C16.1459 5.9111 16.8844 6.00035 17.533 6.32061C18.1816 6.64086 18.7014 7.17292 19.0065 7.82878C19.3116 8.48464 19.3837 9.22501 19.2109 9.92741C19.038 10.6298 18.6306 11.2522 18.0559 11.6915C17.4813 12.1309 16.7739 12.3609 16.0507 12.3436C15.3276 12.3262 14.632 12.0625 14.0791 11.5962Z" stroke="white" stroke-width="1.5" stroke-linejoin="round"></path>
    <path id="ec509b41f9e6f15897751f2ef91e0db2" d="M43.3483 17.7476L43.3483 17.7483V22.498V22.4993C43.3469 23.2606 43.086 23.9987 42.6087 24.5917L42.0244 24.1215L42.6087 24.5917C42.2615 25.0232 41.8149 25.3591 41.3111 25.5734V29.0597C41.3133 29.1863 41.34 29.3112 41.39 29.4275C41.4404 29.5451 41.5135 29.6516 41.6052 29.7409C41.6968 29.8302 41.8051 29.9006 41.9239 29.948C42.0427 29.9955 42.1697 30.0191 42.2976 30.0174L42.3073 30.0173V30.0174H42.5984C42.8519 30.0131 43.094 29.9107 43.2736 29.7317C43.453 29.5528 43.5562 29.3115 43.5615 29.0584V22.1521C43.5615 22.1521 43.5615 22.152 43.5615 22.152C43.5615 21.8407 43.6841 21.5418 43.9029 21.3203C44.1217 21.0987 44.4189 20.9722 44.7303 20.9683L44.7491 20.9683C45.0594 20.9721 45.3558 21.0971 45.5753 21.3165C45.7947 21.5359 45.9196 21.8324 45.9235 22.1427L45.9236 22.152H45.9235V29.0597C45.9279 29.3155 46.0327 29.5594 46.2154 29.7386C46.399 29.9188 46.6466 30.019 46.9039 30.0174L46.9087 30.0173L47.2148 30.0174C47.4723 30.0163 47.7189 29.9133 47.9006 29.7309C48.0827 29.5483 48.1849 29.301 48.1849 29.0432V19.0441C48.1849 18.6299 48.5207 18.2941 48.9349 18.2941H49.3741C49.6456 18.2941 49.906 18.1863 50.0979 17.9943C50.2899 17.8024 50.3977 17.542 50.3977 17.2705V12.5216C50.3968 11.6114 50.1086 10.7247 49.5742 9.98788C49.1124 9.35105 48.487 8.85423 47.7675 8.54794C46.8785 9.13564 45.8337 9.45166 44.7617 9.45166C43.6884 9.45166 42.6423 9.13484 41.7526 8.54569C41.4442 8.67432 41.1521 8.8394 40.8828 9.03742V9.03786V9.03884V9.03983V9.04081V9.04179V9.04277V9.04375V9.04473V9.04571V9.04669V9.04767V9.04866V9.04964V9.05062V9.0516V9.05258V9.05357V9.05455V9.05553V9.05651V9.0575V9.05848V9.05946V9.06045V9.06143V9.06241V9.0634V9.06438V9.06537V9.06635V9.06733V9.06832V9.0693V9.07029V9.07127V9.07226V9.07324V9.07423V9.07521V9.0762V9.07718V9.07817V9.07915V9.08014V9.08112V9.08211V9.0831V9.08408V9.08507V9.08606V9.08704V9.08803V9.08902V9.09V9.09099V9.09198V9.09296V9.09395V9.09494V9.09593V9.09692V9.0979V9.09889V9.09988V9.10087V9.10186V9.10285V9.10383V9.10482V9.10581V9.1068V9.10779V9.10878V9.10977V9.11076V9.11175V9.11274V9.11373V9.11472V9.11571V9.1167V9.11769V9.11868V9.11967V9.12066V9.12165V9.12264V9.12364V9.12463V9.12562V9.12661V9.1276V9.12859V9.12959V9.13058V9.13157V9.13256V9.13356V9.13455V9.13554V9.13653V9.13753V9.13852V9.13951V9.14051V9.1415V9.14249V9.14349V9.14448V9.14548V9.14647V9.14746V9.14846V9.14945V9.15045V9.15144V9.15244V9.15343V9.15443V9.15542V9.15642V9.15741V9.15841V9.15941V9.1604V9.1614V9.16239V9.16339V9.16439V9.16538V9.16638V9.16738V9.16837V9.16937V9.17028V9.17037V9.17137H40.7103C40.6811 9.1953 40.6521 9.21964 40.6235 9.24439L40.5604 9.17137H40.1328M43.3483 17.7476L42.5983 17.7483C42.5972 16.5823 42.2502 15.4428 41.6011 14.4741C41.0963 13.7207 40.4265 13.097 39.6465 12.6478C39.8064 12.4525 39.9518 12.2473 40.0822 12.0337M43.3483 17.7476C43.3471 16.4331 42.9559 15.1486 42.2242 14.0567C41.6684 13.2272 40.9352 12.5371 40.0822 12.0337M43.3483 17.7476L40.0822 12.0337M40.1328 9.17137L40.5593 9.17011L40.1328 8.67718V9.17137ZM40.1328 9.17137C40.1355 10.0667 39.8834 10.9387 39.4137 11.6887C39.6436 11.7913 39.8667 11.9065 40.0822 12.0337" stroke="white" stroke-width="1.5" stroke-linejoin="round"></path>
    <path id="b32702af00caddf4f1625da7ce2c705e" d="M42.7157 6.37005L42.713 6.36776C42.2132 5.94792 41.8545 5.38448 41.6858 4.75388C41.5171 4.12328 41.5464 3.45604 41.7698 2.84268C41.9933 2.22932 42.3999 1.69953 42.9347 1.32517C43.4695 0.950813 44.1065 0.750015 44.7593 0.750015C45.412 0.750015 46.049 0.950813 46.5838 1.32517C47.1186 1.69953 47.5252 2.22932 47.7487 2.84268C47.9721 3.45604 48.0014 4.12328 47.8327 4.75388C47.6639 5.38448 47.3053 5.94792 46.8055 6.36776L46.8055 6.36776L46.8028 6.37005C46.2319 6.85415 45.5077 7.11986 44.7593 7.11986C44.0108 7.11986 43.2866 6.85414 42.7157 6.37005Z" stroke="white" stroke-width="1.5" stroke-linejoin="round"></path>
    <path id="d441c1d25b99e52396b85da3fe2580b7" d="M40.0223 23.5215C40.2938 23.5204 40.5538 23.4121 40.7458 23.2201C40.9377 23.0282 41.046 22.7682 41.0472 22.4967V17.7485C41.0472 17.7484 41.0472 17.7484 41.0472 17.7483C41.0468 16.8368 40.7584 15.9487 40.2231 15.2109C39.7604 14.5731 39.1336 14.0758 38.4125 13.7698C37.523 14.3598 36.4766 14.6772 35.4029 14.6772C34.3294 14.6772 33.2832 14.36 32.3938 13.7702C31.934 13.9661 31.5106 14.2405 31.1431 14.5821C30.773 14.9261 30.4667 15.3315 30.2372 15.7796C30.6841 16.6212 30.8865 17.5745 30.8166 18.5306C30.7569 19.3477 30.5007 20.1339 30.075 20.8245C31.0234 21.3128 31.8444 22.0244 32.4642 22.9032C33.2542 24.0234 33.6786 25.3604 33.6792 26.7311L33.6792 26.7315L33.6792 31.4806L33.6792 31.4812M40.0223 23.5215L31.2325 33.9192C31.7307 33.735 32.1604 33.4026 32.4638 32.9667C32.7672 32.5307 32.9296 32.0123 32.9292 31.4812H33.6792M40.0223 23.5215H39.5898C39.1756 23.5215 38.8398 23.8573 38.8398 24.2715V34.2926C38.8398 34.5509 38.7372 34.7987 38.5545 34.9814C38.3718 35.1641 38.124 35.2667 37.8656 35.2667H37.565C37.3066 35.2656 37.0591 35.1625 36.8764 34.9798C36.6937 34.7971 36.5905 34.5496 36.5895 34.2912V27.3795C36.5895 27.3795 36.5895 27.3795 36.5895 27.3794C36.5895 27.0681 36.4668 26.7693 36.248 26.5477L35.7143 27.0746L36.248 26.5477C36.0293 26.3261 35.732 26.1997 35.4207 26.1957L35.4018 26.1957C35.0916 26.1996 34.7951 26.3245 34.5757 26.5439C34.3563 26.7634 34.2313 27.0598 34.2274 27.3701L34.2274 27.3701V27.3794V34.2926C34.2274 34.5509 34.1247 34.7987 33.942 34.9814C33.7594 35.1641 33.5116 35.2667 33.2532 35.2667H32.9526C32.6951 35.2656 32.4485 35.1627 32.2668 34.9803C32.1083 34.8214 32.0104 34.6134 31.9876 34.3922M40.0223 23.5215L31.9876 34.3922M33.6792 31.4812C33.6796 32.1655 33.4703 32.8334 33.0794 33.3951C32.793 33.8065 32.4193 34.1465 31.9876 34.3922M33.6792 31.4812L31.9876 34.3922" stroke="white" stroke-width="1.5" stroke-linejoin="round"></path>
    <path id="456d49c93f89b7bb3e80e5b21080f605" d="M33.3607 11.5938L33.3592 11.5925C33.0037 11.2973 32.7177 10.9273 32.5215 10.5089C32.3254 10.0906 32.2239 9.63409 32.2243 9.17201L32.2243 9.17004C32.223 8.44972 32.4674 7.7505 32.9172 7.18788C33.367 6.62527 33.9953 6.23292 34.6982 6.07564C35.4012 5.91836 36.1368 6.00557 36.7834 6.32285C37.4301 6.64013 37.9492 7.16851 38.255 7.82071C38.5608 8.4729 38.635 9.20989 38.4653 9.90994C38.2956 10.61 37.8922 11.2312 37.3217 11.671C36.7512 12.1108 36.0478 12.3428 35.3276 12.3288C34.6074 12.3148 33.9136 12.0555 33.3607 11.5938Z" stroke="white" stroke-width="1.5" stroke-linejoin="round"></path>
    <g id="64d53b6d2111c02dc7cb92d1cd7b6065">
      <mask id="d35ffc5f00743177599a5534c4a55452" fill="white">
        <path d="M32.2318 31.4812V26.7315C32.2312 25.5782 31.8368 24.4596 31.1139 23.5609C30.391 22.6622 29.3828 22.0374 28.2564 21.7897C27.5429 22.2691 26.7027 22.5252 25.8431 22.5252C24.9835 22.5252 24.1433 22.2691 23.4298 21.7897C23.1275 21.8546 22.8317 21.9465 22.5458 22.0642C21.629 22.4541 20.8471 23.105 20.2975 23.9358C19.7478 24.7667 19.4546 25.7408 19.4544 26.737V31.4812C19.4546 31.7896 19.5353 32.0926 19.6884 32.3603C19.8415 32.628 20.0617 32.8511 20.3274 33.0077C20.5993 33.1711 20.9108 33.2566 21.2279 33.2548H21.6617V43.2758C21.6632 43.7327 21.8453 44.1704 22.1683 44.4934C22.4914 44.8164 22.9291 44.9986 23.3859 45H23.6879C24.1452 45 24.5837 44.8184 24.9071 44.495C25.2304 44.1717 25.4121 43.7331 25.4121 43.2758V36.3627C25.4052 36.302 25.4112 36.2406 25.4298 36.1824C25.4483 36.1242 25.4789 36.0705 25.5196 36.025C25.5603 35.9794 25.6101 35.943 25.6659 35.918C25.7216 35.8931 25.782 35.8802 25.8431 35.8802C25.9042 35.8802 25.9646 35.8931 26.0203 35.918C26.0761 35.943 26.1259 35.9794 26.1666 36.025C26.2073 36.0705 26.2379 36.1242 26.2564 36.1824C26.275 36.2406 26.281 36.302 26.2741 36.3627V43.2758C26.2741 43.7331 26.4558 44.1717 26.7791 44.495C27.1025 44.8184 27.541 45 27.9983 45H28.2948C28.7517 44.9986 29.1894 44.8164 29.5124 44.4934C29.8354 44.1704 30.0175 43.7327 30.019 43.2758V33.2548H30.4583C30.9286 33.2548 31.3798 33.068 31.7124 32.7353C32.045 32.4027 32.2318 31.9516 32.2318 31.4812Z"></path>
      </mask>
      <path d="M32.2318 26.7315H33.7318L33.7318 26.7308L32.2318 26.7315ZM28.2564 21.7897L28.5785 20.3247C28.1784 20.2367 27.7598 20.3162 27.4198 20.5447L28.2564 21.7897ZM23.4298 21.7897L24.2664 20.5447C23.9286 20.3176 23.5129 20.2376 23.1149 20.3231L23.4298 21.7897ZM22.5458 22.0642L21.9745 20.6773C21.9692 20.6794 21.964 20.6816 21.9587 20.6839L22.5458 22.0642ZM19.4544 26.737L17.9544 26.7367V26.737H19.4544ZM19.4544 31.4812H17.9544L17.9544 31.4825L19.4544 31.4812ZM20.3274 33.0077L21.1001 31.722L21.089 31.7155L20.3274 33.0077ZM21.2279 33.2548V31.7548L21.2196 31.7548L21.2279 33.2548ZM21.6617 33.2548H23.1617C23.1617 32.4264 22.4902 31.7548 21.6617 31.7548V33.2548ZM21.6617 43.2758H20.1617L20.1617 43.2806L21.6617 43.2758ZM23.3859 45L23.3811 46.5H23.3859V45ZM23.6879 45V46.5V45ZM25.4121 36.3627H26.9121C26.9121 36.3064 26.9089 36.2502 26.9026 36.1942L25.4121 36.3627ZM25.8431 35.8802V37.3802V35.8802ZM26.2741 36.3627L24.7836 36.1942C24.7773 36.2502 24.7741 36.3064 24.7741 36.3627H26.2741ZM27.9983 45V46.5V45ZM28.2948 45V46.5L28.2996 46.5L28.2948 45ZM30.019 43.2758L31.519 43.2806V43.2758H30.019ZM30.019 33.2548V31.7548C29.1906 31.7548 28.519 32.4264 28.519 33.2548H30.019ZM30.4583 33.2548V34.7548V33.2548ZM33.7318 31.4812V26.7315H30.7318V31.4812H33.7318ZM33.7318 26.7308C33.7311 25.2357 33.2198 23.7857 32.2827 22.6207L29.9451 24.5011C30.4539 25.1335 30.7314 25.9207 30.7318 26.7323L33.7318 26.7308ZM32.2827 22.6207C31.3455 21.4558 30.0387 20.6457 28.5785 20.3247L27.9343 23.2547C28.727 23.429 29.4364 23.8687 29.9451 24.5011L32.2827 22.6207ZM27.4198 20.5447C26.9536 20.8579 26.4047 21.0252 25.8431 21.0252V24.0252C27.0007 24.0252 28.1321 23.6804 29.093 23.0347L27.4198 20.5447ZM25.8431 21.0252C25.2815 21.0252 24.7326 20.8579 24.2664 20.5447L22.5932 23.0347C23.5541 23.6804 24.6855 24.0252 25.8431 24.0252V21.0252ZM23.1149 20.3231C22.725 20.4068 22.3433 20.5254 21.9745 20.6773L23.1171 23.4512C23.32 23.3676 23.5301 23.3023 23.7447 23.2562L23.1149 20.3231ZM21.9587 20.6839C20.7712 21.1889 19.7585 22.0319 19.0465 23.1082L21.5485 24.7634C21.9358 24.178 22.4868 23.7193 23.1328 23.4446L21.9587 20.6839ZM19.0465 23.1082C18.3345 24.1844 17.9547 25.4462 17.9544 26.7367L20.9544 26.7374C20.9545 26.0354 21.1611 25.3489 21.5485 24.7634L19.0465 23.1082ZM17.9544 26.737V31.4812H20.9544V26.737H17.9544ZM17.9544 31.4825C17.9548 32.0517 18.1037 32.6109 18.3863 33.105L20.9905 31.6156C20.9668 31.5743 20.9544 31.5276 20.9544 31.48L17.9544 31.4825ZM18.3863 33.105C18.6689 33.5991 19.0754 34.011 19.5658 34.3L21.089 31.7155C21.048 31.6913 21.0141 31.6569 20.9905 31.6156L18.3863 33.105ZM19.5548 34.2934C20.0624 34.5985 20.6441 34.7581 21.2362 34.7548L21.2196 31.7548C21.1775 31.7551 21.1362 31.7437 21.1001 31.722L19.5548 34.2934ZM21.2279 34.7548H21.6617V31.7548H21.2279V34.7548ZM20.1617 33.2548V43.2758H23.1617V33.2548H20.1617ZM20.1617 43.2806C20.1644 44.1336 20.5045 44.9509 21.1077 45.5541L23.229 43.4327C23.1861 43.3899 23.1619 43.3317 23.1617 43.2711L20.1617 43.2806ZM21.1077 45.5541C21.7108 46.1572 22.5281 46.4973 23.3811 46.5L23.3906 43.5C23.33 43.4998 23.2719 43.4756 23.229 43.4327L21.1077 45.5541ZM23.3859 46.5H23.6879V43.5H23.3859V46.5ZM23.6879 46.5C24.543 46.5 25.3631 46.1603 25.9677 45.5557L23.8464 43.4343C23.8044 43.4764 23.7473 43.5 23.6879 43.5V46.5ZM25.9677 45.5557C26.5724 44.951 26.9121 44.1309 26.9121 43.2758H23.9121C23.9121 43.3353 23.8884 43.3923 23.8464 43.4343L25.9677 45.5557ZM26.9121 43.2758V36.3627H23.9121V43.2758H26.9121ZM26.9026 36.1942C26.9194 36.3434 26.9046 36.4944 26.8591 36.6375L24.0005 35.7272C23.9179 35.9867 23.891 36.2607 23.9216 36.5312L26.9026 36.1942ZM26.8591 36.6375C26.8135 36.7805 26.7383 36.9123 26.6382 37.0243L24.401 35.0257C24.2195 35.2287 24.0831 35.4678 24.0005 35.7272L26.8591 36.6375ZM26.6382 37.0243C26.5382 37.1363 26.4157 37.2258 26.2787 37.2872L25.0531 34.5489C24.8046 34.6602 24.5824 34.8226 24.401 35.0257L26.6382 37.0243ZM26.2787 37.2872C26.1417 37.3485 25.9932 37.3802 25.8431 37.3802V34.3802C25.5708 34.3802 25.3016 34.4377 25.0531 34.5489L26.2787 37.2872ZM25.8431 37.3802C25.693 37.3802 25.5445 37.3485 25.4075 37.2872L26.6331 34.5489C26.3846 34.4377 26.1154 34.3802 25.8431 34.3802V37.3802ZM25.4075 37.2872C25.2705 37.2258 25.148 37.1363 25.048 37.0243L27.2853 35.0257C27.1039 34.8226 26.8816 34.6602 26.6331 34.5489L25.4075 37.2872ZM25.048 37.0243C24.9479 36.9123 24.8727 36.7805 24.8272 36.6375L27.6857 35.7272C27.6031 35.4678 27.4667 35.2287 27.2853 35.0257L25.048 37.0243ZM24.8272 36.6375C24.7816 36.4944 24.7668 36.3434 24.7836 36.1942L27.7647 36.5312C27.7952 36.2606 27.7683 35.9867 27.6857 35.7272L24.8272 36.6375ZM24.7741 36.3627V43.2758H27.7741V36.3627H24.7741ZM24.7741 43.2758C24.7741 44.1309 25.1138 44.951 25.7185 45.5557L27.8398 43.4343C27.7978 43.3923 27.7741 43.3353 27.7741 43.2758H24.7741ZM25.7185 45.5557C26.3231 46.1603 27.1432 46.5 27.9983 46.5V43.5C27.9389 43.5 27.8818 43.4764 27.8398 43.4343L25.7185 45.5557ZM27.9983 46.5H28.2948V43.5H27.9983V46.5ZM28.2996 46.5C29.1526 46.4973 29.9699 46.1572 30.573 45.5541L28.4517 43.4327C28.4088 43.4756 28.3507 43.4998 28.2901 43.5L28.2996 46.5ZM30.573 45.5541C31.1762 44.9509 31.5163 44.1336 31.519 43.2806L28.519 43.2711C28.5188 43.3317 28.4946 43.3899 28.4517 43.4327L30.573 45.5541ZM31.519 43.2758V33.2548H28.519V43.2758H31.519ZM30.019 34.7548H30.4583V31.7548H30.019V34.7548ZM30.4583 34.7548C31.3265 34.7548 32.1591 34.4099 32.773 33.796L30.6517 31.6747C30.6004 31.726 30.5308 31.7548 30.4583 31.7548V34.7548ZM32.773 33.796C33.387 33.1821 33.7318 32.3494 33.7318 31.4812H30.7318C30.7318 31.5538 30.703 31.6234 30.6517 31.6747L32.773 33.796Z" fill="white" mask="url(#d35ffc5f00743177599a5534c4a55452)"></path>
    </g>
    <path id="1b65c46bde003d7cf1027f091292b955" d="M24.0174 20.3101L24.0157 20.3087C23.7007 20.0449 23.4485 19.7141 23.2774 19.3406C23.1063 18.967 23.0206 18.56 23.0266 18.1491L23.0267 18.1469C23.034 17.5139 23.2567 16.9024 23.6581 16.4128C24.0595 15.9233 24.6156 15.5851 25.2348 15.4538C25.8541 15.3225 26.4996 15.406 27.065 15.6906C27.6305 15.9751 28.0822 16.4437 28.3458 17.0192C28.6094 17.5948 28.6691 18.2429 28.5152 18.8569C28.3613 19.4709 28.0029 20.0142 27.499 20.3973C26.995 20.7805 26.3757 20.9806 25.7429 20.9647C25.11 20.9489 24.5015 20.718 24.0174 20.3101Z" stroke="white" stroke-width="1.5" stroke-linejoin="round"></path>
  </g>
</svg>