<svg width="52" height="45" viewBox="0 0 52 45" fill="none" xmlns="http://www.w3.org/2000/svg">
<path d="M32.6471 10.0625C31.3569 10.0283 30.1326 9.48572 29.2408 8.55301C28.349 7.6203 27.8622 6.37303 27.8863 5.08302C27.8597 4.44198 27.9631 3.80219 28.1902 3.2021C28.4173 2.60201 28.7634 2.05402 29.2077 1.59106C29.652 1.1281 30.1854 0.759721 30.7757 0.508076C31.3661 0.25643 32.0012 0.126709 32.643 0.126709C33.2848 0.126709 33.92 0.25643 34.5103 0.508076C35.1007 0.759721 35.634 1.1281 36.0784 1.59106C36.5227 2.05402 36.8688 2.60201 37.0959 3.2021C37.323 3.80219 37.4263 4.44198 37.3998 5.08302C37.4239 6.37166 36.9382 7.61772 36.0481 8.5502C35.1581 9.48269 33.9358 10.0262 32.6471 10.0625ZM32.6471 1.7498C31.7966 1.79 30.9955 2.1612 30.4151 2.78405C29.8347 3.40691 29.521 4.23202 29.5412 5.08302C29.5102 5.50969 29.5676 5.93816 29.7096 6.34169C29.8517 6.74522 30.0754 7.11515 30.3669 7.4284C30.6583 7.74164 31.0112 7.99147 31.4035 8.1623C31.7958 8.33314 32.2192 8.42131 32.6471 8.42131C33.075 8.42131 33.4984 8.33314 33.8907 8.1623C34.283 7.99147 34.6359 7.74164 34.9273 7.4284C35.2188 7.11515 35.4425 6.74522 35.5846 6.34169C35.7266 5.93816 35.784 5.50969 35.753 5.08302C35.7775 4.22924 35.4658 3.39997 34.8849 2.77358C34.3041 2.1472 33.5005 1.77373 32.6471 1.73351V1.7498Z" fill="white"/>
<path d="M32.647 45C32.4308 45 32.2234 44.9141 32.0706 44.7613C31.9177 44.6084 31.8318 44.4011 31.8318 44.185V29.6704C31.8318 29.4543 31.9177 29.247 32.0706 29.0942C32.2234 28.9413 32.4308 28.8555 32.647 28.8555C32.8632 28.8555 33.0706 28.9413 33.2234 29.0942C33.3763 29.247 33.4622 29.4543 33.4622 29.6704V44.1768C33.4633 44.2846 33.443 44.3914 33.4025 44.4912C33.362 44.591 33.3021 44.6818 33.2263 44.7584C33.1505 44.8349 33.0603 44.8957 32.9609 44.9372C32.8614 44.9786 32.7547 45 32.647 45Z" fill="white"/>
<path d="M18.9595 10.0624C17.6707 10.0261 16.4484 9.48263 15.5584 8.55015C14.6684 7.61767 14.1826 6.37161 14.2068 5.08296C14.1826 3.79432 14.6684 2.54826 15.5584 1.61578C16.4484 0.683295 17.6707 0.139807 18.9595 0.103516C20.2482 0.139807 21.4705 0.683295 22.3605 1.61578C23.2505 2.54826 23.7363 3.79432 23.7121 5.08296C23.7363 6.37161 23.2505 7.61767 22.3605 8.55015C21.4705 9.48263 20.2482 10.0261 18.9595 10.0624ZM18.9595 1.74975C18.1089 1.78995 17.3078 2.16114 16.7275 2.784C16.1471 3.40686 15.8334 4.23196 15.8535 5.08296C15.8334 5.93396 16.1471 6.75907 16.7275 7.38193C17.3078 8.00479 18.1089 8.37598 18.9595 8.41618C19.81 8.37598 20.6111 8.00479 21.1915 7.38193C21.7719 6.75907 22.0855 5.93396 22.0654 5.08296C22.0899 4.22918 21.7781 3.39992 21.1973 2.77353C20.6165 2.14714 19.8129 1.77367 18.9595 1.73345V1.74975Z" fill="white"/>
<path d="M18.9596 45C18.7434 45 18.5361 44.9141 18.3832 44.7613C18.2303 44.6084 18.1444 44.4011 18.1444 44.185V29.6704C18.1444 29.4543 18.2303 29.247 18.3832 29.0942C18.5361 28.9413 18.7434 28.8555 18.9596 28.8555C19.1758 28.8555 19.3832 28.9413 19.5361 29.0942C19.6889 29.247 19.7748 29.4543 19.7748 29.6704V44.1768C19.7759 44.2846 19.7556 44.3914 19.7151 44.4912C19.6746 44.591 19.6148 44.6818 19.539 44.7584C19.4632 44.8349 19.3729 44.8957 19.2735 44.9372C19.174 44.9786 19.0674 45 18.9596 45Z" fill="white"/>
<path d="M37.0326 45.0001H28.2528C28.0366 45.0001 27.8293 44.9142 27.6764 44.7614C27.5235 44.6086 27.4376 44.4013 27.4376 44.1851V19.7361C27.4376 19.3039 27.2658 18.8893 26.9601 18.5836C26.6543 18.2779 26.2396 18.1062 25.8072 18.1062C25.3748 18.1062 24.9601 18.2779 24.6543 18.5836C24.3486 18.8893 24.1768 19.3039 24.1768 19.7361V44.1851C24.1768 44.4013 24.0909 44.6086 23.938 44.7614C23.7851 44.9142 23.5778 45.0001 23.3616 45.0001H14.5655C14.3493 45.0001 14.1419 44.9142 13.989 44.7614C13.8361 44.6086 13.7502 44.4013 13.7502 44.1851V17.9758C11.1451 17.505 8.6641 16.5057 6.46009 15.0396C4.25608 13.5735 2.37579 11.6716 0.935159 9.45126C0.710133 9.07491 0.56761 8.65509 0.517018 8.21957C0.466425 7.78404 0.508918 7.34274 0.641683 6.92486C0.777728 6.49586 1.00473 6.10124 1.3072 5.76792C1.60967 5.4346 1.9805 5.17041 2.39438 4.99339C2.96937 4.76152 3.60072 4.70748 4.20677 4.83824C4.81281 4.969 5.36566 5.27856 5.79381 5.72686C8.33151 8.28893 11.3665 10.3052 14.7122 11.6517H36.894C40.2629 10.2806 43.3149 8.23369 45.8613 5.63721C46.169 5.33499 46.5375 5.10165 46.9423 4.95271C47.347 4.80377 47.7789 4.74263 48.2091 4.77335C48.7404 4.8077 49.2536 4.97981 49.6982 5.27272C50.1427 5.56564 50.5033 5.96926 50.7443 6.44383C50.9854 6.9184 51.0986 7.44756 51.0729 7.97919C51.0472 8.51082 50.8834 9.02659 50.5977 9.47571C49.1621 11.6829 47.292 13.5747 45.1015 15.0361C42.9109 16.4974 40.4457 17.4976 37.856 17.9758V44.177C37.8571 44.2854 37.8365 44.3929 37.7955 44.4933C37.7545 44.5936 37.6939 44.6848 37.6173 44.7615C37.5406 44.8381 37.4494 44.8987 37.349 44.9397C37.2486 44.9807 37.1411 45.0012 37.0326 45.0001ZM29.0762 43.3702H36.2093V17.2912C36.2073 17.0935 36.2774 16.9018 36.4064 16.7518C36.5353 16.6019 36.7145 16.5039 36.9103 16.4763C39.3995 16.118 41.7844 15.2363 43.9076 13.8891C46.0309 12.5419 47.8443 10.7599 49.2282 8.66074C49.3658 8.45215 49.4462 8.21108 49.4613 7.96166C49.4764 7.71224 49.4256 7.46324 49.3142 7.23958C49.2027 7.01592 49.0345 6.82546 48.8262 6.68727C48.618 6.54908 48.3771 6.46801 48.1276 6.45218C47.9321 6.43816 47.7358 6.46577 47.5517 6.53321C47.3676 6.60064 47.1999 6.70635 47.0597 6.84336C44.3054 9.67833 40.9675 11.8807 37.2772 13.2979C37.1926 13.3239 37.1048 13.3377 37.0163 13.3386H14.5655C14.4797 13.337 14.3947 13.3233 14.3127 13.2979C10.6657 11.8952 7.36481 9.72128 4.63621 6.92486C4.43273 6.70708 4.16926 6.55446 3.87907 6.48629C3.58889 6.41811 3.285 6.43744 3.00579 6.54183C2.81785 6.62652 2.65012 6.75028 2.51377 6.90486C2.37742 7.05944 2.27558 7.24128 2.21504 7.43829C2.15116 7.63179 2.12975 7.83677 2.15226 8.03928C2.17477 8.2418 2.24067 8.43708 2.34547 8.61184C3.72671 10.7249 5.5427 12.5194 7.67237 13.8755C9.80203 15.2316 12.1964 16.1182 14.6959 16.4763C14.8903 16.5057 15.0675 16.6045 15.1948 16.7542C15.3221 16.904 15.391 17.0947 15.3888 17.2912V43.3702H22.5056V19.7361C22.5056 18.8716 22.8491 18.0424 23.4607 17.4311C24.0722 16.8197 24.9016 16.4763 25.7664 16.4763C26.6313 16.4763 27.4607 16.8197 28.0722 17.4311C28.6837 18.0424 29.0273 18.8716 29.0273 19.7361L29.0762 43.3702Z" fill="white"/>
<path d="M23.647 19.4101H23.4921C23.3858 19.3906 23.2843 19.3501 23.1937 19.291C23.1032 19.2319 23.0252 19.1553 22.9645 19.0658C22.9039 18.9763 22.8616 18.8756 22.8402 18.7696C22.8188 18.6636 22.8187 18.5545 22.84 18.4484C23.0674 17.0115 23.6411 15.6515 24.5118 14.4858C25.3824 13.3201 26.5237 12.3838 27.8372 11.7575C28.0394 11.6754 28.2659 11.6769 28.4669 11.7617C28.668 11.8466 28.8271 12.0078 28.9092 12.2099C28.9914 12.4119 28.9899 12.6384 28.905 12.8394C28.8202 13.0404 28.6589 13.1994 28.4568 13.2815C27.4014 13.8074 26.4873 14.5782 25.7909 15.5296C25.0945 16.481 24.6361 17.5852 24.4541 18.75C24.4179 18.9369 24.3174 19.1053 24.1699 19.2259C24.0225 19.3465 23.8375 19.4117 23.647 19.4101Z" fill="white"/>
<path d="M44.3041 45.0001H7.2936C7.0774 45.0001 6.87004 44.9142 6.71716 44.7614C6.56428 44.6085 6.47839 44.4012 6.47839 44.1851C6.47839 43.9689 6.56428 43.7617 6.71716 43.6088C6.87004 43.456 7.0774 43.3701 7.2936 43.3701H44.3041C44.5203 43.3701 44.7277 43.456 44.8805 43.6088C45.0334 43.7617 45.1193 43.9689 45.1193 44.1851C45.1193 44.4012 45.0334 44.6085 44.8805 44.7614C44.7277 44.9142 44.5203 45.0001 44.3041 45.0001Z" fill="white"/>
</svg>
