<svg width="52" height="45" viewBox="0 0 52 45" fill="none" xmlns="http://www.w3.org/2000/svg">
  <g id="684594ce40daa37ad396b47eb1d749ac">
    <path id="77c9a828925008ff52c51d102f6f4313" d="M32.647 10.0623C31.3569 10.0281 30.1325 9.48557 29.2407 8.55286C28.349 7.62014 27.8621 6.37288 27.8862 5.08287C27.8597 4.44182 27.963 3.80203 28.1901 3.20195C28.4172 2.60186 28.7633 2.05387 29.2076 1.59091C29.6519 1.12794 30.1853 0.759568 30.7757 0.507923C31.366 0.256277 32.0012 0.126556 32.643 0.126556C33.2847 0.126556 33.9199 0.256277 34.5103 0.507923C35.1006 0.759568 35.634 1.12794 36.0783 1.59091C36.5226 2.05387 36.8687 2.60186 37.0958 3.20195C37.3229 3.80203 37.4263 4.44182 37.3997 5.08287C37.4239 6.37151 36.9381 7.61757 36.0481 8.55005C35.1581 9.48253 33.9358 10.026 32.647 10.0623ZM32.647 1.74965C31.7965 1.78985 30.9954 2.16104 30.415 2.7839C29.8346 3.40676 29.521 4.23187 29.5411 5.08287C29.5102 5.50954 29.5675 5.93801 29.7096 6.34154C29.8516 6.74507 30.0754 7.115 30.3668 7.42824C30.6583 7.74149 31.0111 7.99132 31.4035 8.16215C31.7958 8.33299 32.2191 8.42115 32.647 8.42115C33.075 8.42115 33.4983 8.33299 33.8906 8.16215C34.2829 7.99132 34.6358 7.74149 34.9273 7.42824C35.2187 7.115 35.4424 6.74507 35.5845 6.34154C35.7266 5.93801 35.7839 5.50954 35.753 5.08287C35.7774 4.22909 35.4657 3.39982 34.8849 2.77343C34.304 2.14704 33.5005 1.77357 32.647 1.73335V1.74965Z" fill="white"></path>
    <path id="733986d6e472231f720c877f9a84630f" d="M32.6469 45C32.4307 45 32.2234 44.9141 32.0705 44.7613C31.9176 44.6084 31.8317 44.4011 31.8317 44.185V29.6704C31.8317 29.4543 31.9176 29.247 32.0705 29.0942C32.2234 28.9413 32.4307 28.8555 32.6469 28.8555C32.8631 28.8555 33.0705 28.9413 33.2234 29.0942C33.3762 29.247 33.4621 29.4543 33.4621 29.6704V44.1768C33.4632 44.2846 33.4429 44.3914 33.4024 44.4912C33.362 44.591 33.3021 44.6818 33.2263 44.7584C33.1505 44.8349 33.0602 44.8957 32.9608 44.9372C32.8614 44.9786 32.7547 45 32.6469 45Z" fill="white"></path>
    <path id="2a28187a105327035ab6e8de424891fa" d="M18.9595 10.0623C17.6707 10.026 16.4485 9.48256 15.5584 8.55007C14.6684 7.61759 14.1827 6.37153 14.2068 5.08289C14.1827 3.79425 14.6684 2.54818 15.5584 1.6157C16.4485 0.683218 17.6707 0.139731 18.9595 0.103439C20.2482 0.139731 21.4705 0.683218 22.3605 1.6157C23.2505 2.54818 23.7363 3.79425 23.7122 5.08289C23.7363 6.37153 23.2505 7.61759 22.3605 8.55007C21.4705 9.48256 20.2482 10.026 18.9595 10.0623ZM18.9595 1.74967C18.1089 1.78987 17.3079 2.16107 16.7275 2.78392C16.1471 3.40678 15.8334 4.23189 15.8535 5.08289C15.8334 5.93389 16.1471 6.75899 16.7275 7.38185C17.3079 8.00471 18.1089 8.37591 18.9595 8.4161C19.81 8.37591 20.6111 8.00471 21.1915 7.38185C21.7719 6.75899 22.0855 5.93389 22.0654 5.08289C22.0899 4.22911 21.7782 3.39984 21.1973 2.77345C20.6165 2.14706 19.8129 1.77359 18.9595 1.73337V1.74967Z" fill="white"></path>
    <path id="20cc7c0b7ca17954bac2faf9db39f71b" d="M18.9596 45C18.7434 45 18.536 44.9141 18.3832 44.7613C18.2303 44.6084 18.1444 44.4011 18.1444 44.185V29.6704C18.1444 29.4543 18.2303 29.247 18.3832 29.0942C18.536 28.9413 18.7434 28.8555 18.9596 28.8555C19.1758 28.8555 19.3832 28.9413 19.536 29.0942C19.6889 29.247 19.7748 29.4543 19.7748 29.6704V44.1768C19.7759 44.2846 19.7556 44.3914 19.7151 44.4912C19.6746 44.591 19.6147 44.6818 19.5389 44.7584C19.4631 44.8349 19.3729 44.8957 19.2735 44.9372C19.174 44.9786 19.0673 45 18.9596 45Z" fill="white"></path>
    <path id="a51bf70ca37ac171b4b7dcedc1270abf" d="M37.0326 45H28.2528C28.0366 45 27.8292 44.9141 27.6764 44.7613C27.5235 44.6084 27.4376 44.4011 27.4376 44.185V19.736C27.4376 19.3037 27.2658 18.8891 26.9601 18.5835C26.6543 18.2778 26.2396 18.1061 25.8072 18.1061C25.3748 18.1061 24.9601 18.2778 24.6543 18.5835C24.3485 18.8891 24.1768 19.3037 24.1768 19.736V44.185C24.1768 44.4011 24.0909 44.6084 23.938 44.7613C23.7851 44.9141 23.5777 45 23.3615 45H14.5654C14.3492 45 14.1419 44.9141 13.989 44.7613C13.8361 44.6084 13.7502 44.4011 13.7502 44.185V17.9757C11.1451 17.5048 8.66408 16.5055 6.46007 15.0394C4.25605 13.5733 2.37577 11.6715 0.935136 9.45111C0.71011 9.07476 0.567587 8.65494 0.516995 8.21941C0.466403 7.78389 0.508895 7.34259 0.641661 6.92471C0.777705 6.49571 1.0047 6.10109 1.30718 5.76777C1.60965 5.43444 1.98047 5.17026 2.39436 4.99324C2.96934 4.76137 3.6007 4.70733 4.20674 4.83809C4.81279 4.96885 5.36564 5.2784 5.79378 5.72671C8.33148 8.28878 11.3664 10.305 14.7122 11.6515H36.894C40.2629 10.2805 43.3148 8.23353 45.8613 5.63706C46.169 5.33483 46.5374 5.1015 46.9422 4.95256C47.347 4.80362 47.7789 4.74248 48.2091 4.7732C48.7404 4.80755 49.2536 4.97966 49.6981 5.27257C50.1427 5.56549 50.5032 5.9691 50.7443 6.44368C50.9853 6.91825 51.0986 7.44741 51.0729 7.97904C51.0472 8.51067 50.8834 9.02644 50.5977 9.47555C49.1621 11.6827 47.292 13.5746 45.1015 15.0359C42.9109 16.4973 40.4457 17.4975 37.856 17.9757V44.1768C37.8571 44.2852 37.8365 44.3928 37.7955 44.4931C37.7545 44.5935 37.6939 44.6847 37.6172 44.7613C37.5406 44.838 37.4494 44.8985 37.349 44.9395C37.2486 44.9805 37.141 45.001 37.0326 45ZM29.0762 43.37H36.2092V17.2911C36.2073 17.0933 36.2773 16.9016 36.4063 16.7517C36.5353 16.6017 36.7144 16.5038 36.9103 16.4761C39.3995 16.1179 41.7843 15.2361 43.9076 13.8889C46.0309 12.5417 47.8443 10.7598 49.2281 8.66059C49.3657 8.452 49.4461 8.21092 49.4612 7.96151C49.4763 7.71209 49.4256 7.46308 49.3142 7.23943C49.2027 7.01577 49.0344 6.82531 48.8262 6.68712C48.618 6.54893 48.377 6.46786 48.1276 6.45203C47.932 6.438 47.7357 6.46562 47.5516 6.53305C47.3676 6.60049 47.1999 6.7062 47.0597 6.84321C44.3054 9.67817 40.9675 11.8806 37.2772 13.2977C37.1926 13.3238 37.1048 13.3375 37.0163 13.3385H14.5654C14.4797 13.3368 14.3946 13.3231 14.3127 13.2977C10.6656 11.8951 7.36479 9.72113 4.63619 6.92471C4.43271 6.70693 4.16924 6.55431 3.87905 6.48614C3.58886 6.41796 3.28497 6.43729 3.00577 6.54167C2.81783 6.62637 2.65009 6.75013 2.51374 6.90471C2.37739 7.05928 2.27556 7.24113 2.21501 7.43814C2.15114 7.63163 2.12973 7.83662 2.15224 8.03913C2.17474 8.24164 2.24064 8.43693 2.34545 8.61169C3.72669 10.7248 5.54268 12.5192 7.67234 13.8753C9.80201 15.2314 12.1964 16.1181 14.6959 16.4761C14.8903 16.5056 15.0674 16.6043 15.1948 16.7541C15.3221 16.9038 15.391 17.0945 15.3888 17.2911V43.37H22.5056V19.736C22.5056 18.8714 22.8491 18.0423 23.4607 17.4309C24.0722 16.8196 24.9016 16.4761 25.7664 16.4761C26.6312 16.4761 27.4606 16.8196 28.0722 17.4309C28.6837 18.0423 29.0272 18.8714 29.0272 19.736L29.0762 43.37Z" fill="white"></path>
    <path id="232f3752485520c66e8f34901bf5a9f7" d="M23.647 19.41H23.4921C23.3857 19.3905 23.2843 19.35 23.1937 19.2909C23.1031 19.2318 23.0252 19.1553 22.9645 19.0658C22.9038 18.9763 22.8616 18.8756 22.8402 18.7696C22.8188 18.6636 22.8187 18.5544 22.84 18.4483C23.0673 17.0114 23.6411 15.6514 24.5117 14.4857C25.3824 13.32 26.5237 12.3837 27.8372 11.7575C28.0393 11.6753 28.2659 11.6768 28.4669 11.7617C28.6679 11.8465 28.827 12.0077 28.9092 12.2098C28.9914 12.4119 28.9898 12.6383 28.905 12.8393C28.8201 13.0403 28.6589 13.1993 28.4568 13.2815C27.4013 13.8073 26.4872 14.5782 25.7909 15.5295C25.0945 16.4809 24.6361 17.5851 24.4541 18.7499C24.4179 18.9368 24.3174 19.1052 24.1699 19.2258C24.0225 19.3464 23.8375 19.4116 23.647 19.41Z" fill="white"></path>
    <path id="aa4c0c2644c32000e0050108658a7fc1" d="M44.3041 44.9999H7.2936C7.07739 44.9999 6.87004 44.9141 6.71715 44.7612C6.56427 44.6084 6.47839 44.4011 6.47839 44.185C6.47839 43.9688 6.56427 43.7615 6.71715 43.6087C6.87004 43.4559 7.07739 43.37 7.2936 43.37H44.3041C44.5203 43.37 44.7276 43.4559 44.8805 43.6087C45.0334 43.7615 45.1193 43.9688 45.1193 44.185C45.1193 44.4011 45.0334 44.6084 44.8805 44.7612C44.7276 44.9141 44.5203 44.9999 44.3041 44.9999Z" fill="white"></path>
  </g>
</svg>