<svg width="44" height="44" viewBox="0 0 44 44" fill="none" xmlns="http://www.w3.org/2000/svg">
<path d="M43.25 11.75V18.7976C29.9335 25.7351 14.0665 25.7351 0.75 18.7976V11.75H43.25ZM26.875 30.25V27.9857C31.5073 27.53 36.0922 26.4454 40.5 24.697V41.25C40.5 42.3558 39.6058 43.25 38.5 43.25H5.5C4.39528 43.25 3.5 42.3556 3.5 41.25V24.6971C7.90691 26.4454 12.4927 27.53 17.125 27.9857V30.25C17.125 32.1845 18.6923 33.75 20.625 33.75H23.375C25.3093 33.75 26.875 32.1843 26.875 30.25ZM14.75 5.5V7.5H14.5V5.5C14.5 2.87684 16.6268 0.75 19.25 0.75H24.75C27.3732 0.75 29.5 2.87684 29.5 5.5V7.5H29.25V5.5C29.25 3.78347 28.5929 2.65846 27.6097 2.00143C26.6803 1.38033 25.5661 1.25 24.75 1.25H19.25C18.3488 1.25 17.2484 1.5418 16.3557 2.21308C15.4369 2.90407 14.75 3.99315 14.75 5.5Z" stroke="white" stroke-width="1.5" stroke-linejoin="round"/>
</svg>
