<svg width="53" height="37" viewBox="0 0 53 37" fill="none" xmlns="http://www.w3.org/2000/svg">
<path d="M2.23413 19.8218L9.07458 16.5996C10.5545 12.5082 13.5369 9.13887 17.3917 7.16979L2.23413 19.8218ZM2.23413 19.8218C0.980828 20.4074 0.435939 21.915 1.02334 23.1722L6.35976 34.5934C6.94716 35.8506 8.45514 36.4042 9.64436 35.8486L2.23413 19.8218ZM42.2049 23.9065C41.9731 24.849 41.0208 25.4227 40.0726 25.1954L39.5484 25.055L38.8108 24.8574L38.6265 25.5985L37.6816 29.3987C37.6815 29.399 37.6815 29.3993 37.6814 29.3997C37.3941 30.5349 36.203 31.227 35.0352 30.9799L33.2544 30.498L32.5155 30.298L32.3307 31.0409C31.7614 33.3295 29.4557 34.725 27.1607 34.1554L18.0032 31.3247L17.7264 31.2391L17.4639 31.3619L9.32688 35.1691C9.32678 35.1691 9.32668 35.1692 9.32658 35.1692C8.5287 35.5418 7.45884 35.1739 7.03924 34.2759L1.70283 22.8547C1.28987 21.9708 1.67551 20.9106 2.55162 20.5013L2.55374 20.5003L9.39419 17.2781L9.67447 17.146L9.77985 16.8547C11.0915 13.2285 13.6376 10.1953 16.938 8.27187L14.3845 14.4756L14.3841 14.4764C13.0433 17.7447 14.5938 21.5035 17.8726 22.8685L17.8744 22.8693C18.8118 23.2567 20.4083 23.5094 22.0136 23.1184C23.6608 22.7172 25.3147 21.6348 26.2399 19.3841L27.2104 17.024L41.2016 20.5984L41.204 20.599C42.1486 20.8369 42.7247 21.7946 42.4918 22.7421C42.4918 22.7422 42.4918 22.7423 42.4918 22.7424L42.205 23.9062L42.2049 23.9065ZM43.568 1.33686L43.5689 1.33644C44.4518 0.923955 45.5025 1.30469 45.9193 2.19682L51.2497 13.6051C51.6629 14.4895 51.2773 15.5489 50.4012 15.9584C50.4011 15.9585 50.401 15.9585 50.4009 15.9585L45.1212 18.4231C44.3836 17.5843 43.4055 16.9501 42.2464 16.649L42.2406 16.6475L28.77 13.2626L29.5018 11.4896L29.5032 11.4861C29.9184 10.4658 29.4434 9.28449 28.4094 8.85972C27.38 8.43684 26.2132 8.93266 25.7886 9.94442L25.787 9.94841L22.5608 17.7633C22.5539 17.775 22.5469 17.7875 22.54 17.8008C22.5261 17.8278 22.5108 17.8614 22.4971 17.901C22.1572 18.6641 21.6003 19.036 21.0237 19.1943C20.4038 19.3645 19.7712 19.2818 19.4049 19.1297L19.4028 19.1288C18.2392 18.6497 17.5904 17.3123 18.1011 16.0229L18.1503 15.8989L18.151 15.8694L22.0984 6.31836C22.2812 5.88994 22.5917 5.55742 22.9743 5.37754L23.5858 5.09997L23.5858 5.10002L23.5932 5.09653C27.539 3.25293 32.0555 3.05113 36.1539 4.54665L36.4459 4.65318L36.7276 4.52199L43.568 1.33686Z" stroke="white" stroke-width="1.5"/>
</svg>
