<svg width="53" height="37" viewBox="0 0 53 37" fill="none" xmlns="http://www.w3.org/2000/svg">
  <path id="3e9a3cac021d249ea86387ed5ba3d97a" d="M2.23415 19.8217L9.07459 16.5995C10.5545 12.5082 13.5369 9.13881 17.3917 7.16973L2.23415 19.8217ZM2.23415 19.8217C0.980841 20.4073 0.435952 21.9149 1.02336 23.1721L6.35977 34.5933C6.94717 35.8505 8.45516 36.4041 9.64437 35.8485L2.23415 19.8217ZM42.2049 23.9064C41.9731 24.8489 41.0208 25.4226 40.0726 25.1954L39.5484 25.055L38.8108 24.8574L38.6265 25.5984L37.6816 29.3986C37.6816 29.399 37.6815 29.3993 37.6814 29.3996C37.3941 30.5348 36.2031 31.2269 35.0352 30.9799L33.2545 30.4979L32.5155 30.2979L32.3307 31.0408C31.7615 33.3294 29.4557 34.725 27.1607 34.1553L18.0032 31.3246L17.7264 31.239L17.4639 31.3619L9.32689 35.169C9.32679 35.169 9.32669 35.1691 9.32659 35.1691C8.52871 35.5417 7.45886 35.1739 7.03926 34.2758L1.70285 22.8546C1.28988 21.9708 1.67552 20.9106 2.55163 20.5012L2.55376 20.5002L9.3942 17.278L9.67448 17.146L9.77987 16.8546C11.0915 13.2285 13.6377 10.1952 16.9381 8.27181L14.3845 14.4755L14.3842 14.4763C13.0433 17.7447 14.5938 21.5034 17.8726 22.8685L17.8744 22.8692C18.8118 23.2566 20.4083 23.5094 22.0136 23.1183C23.6608 22.7171 25.3148 21.6347 26.24 19.384L27.2104 17.0239L41.2016 20.5983L41.204 20.5989C42.1486 20.8369 42.7247 21.7945 42.4919 22.742C42.4918 22.7421 42.4918 22.7422 42.4918 22.7423L42.205 23.9061L42.2049 23.9064ZM43.5681 1.3368L43.569 1.33638C44.4518 0.923894 45.5025 1.30463 45.9193 2.19675L51.2497 13.6051C51.6629 14.4894 51.2773 15.5489 50.4012 15.9584C50.4011 15.9584 50.401 15.9584 50.401 15.9585L45.1212 18.423C44.3836 17.5842 43.4055 16.95 42.2464 16.6489L42.2406 16.6474L28.77 13.2625L29.5018 11.4895L29.5033 11.486C29.9184 10.4658 29.4434 9.28443 28.4094 8.85966C27.3801 8.43678 26.2132 8.9326 25.7886 9.94436L25.787 9.94835L22.5608 17.7632C22.5539 17.7749 22.5469 17.7874 22.54 17.8008C22.5261 17.8277 22.5109 17.8613 22.4972 17.9009C22.1573 18.664 21.6004 19.0359 21.0237 19.1943C20.4038 19.3644 19.7712 19.2818 19.4049 19.1296L19.4028 19.1288C18.2392 18.6496 17.5904 17.3123 18.1011 16.0229L18.1503 15.8988L18.151 15.8693L22.0984 6.3183C22.2812 5.88988 22.5917 5.55736 22.9743 5.37747L23.5858 5.09991L23.5858 5.09995L23.5933 5.09647C27.539 3.25287 32.0555 3.05107 36.1539 4.54658L36.4459 4.65312L36.7276 4.52193L43.5681 1.3368Z" stroke="white" stroke-width="1.5"></path>
</svg>